<svg width="28" height="28" viewBox="0 0 28 28" fill="none" xmlns="http://www.w3.org/2000/svg">
<path fill-rule="evenodd" clip-rule="evenodd" d="M0.991572 0.991694C1.425 0.55827 2.12514 0.55827 2.55856 0.991694L11.3601 9.79321C11.3948 9.82065 11.4284 9.85042 11.4604 9.8825L17.1505 15.5726C17.1823 15.6043 17.2117 15.6375 17.2388 15.6719L20.0952 18.5283C20.1788 18.5757 20.2575 18.6351 20.3289 18.7065C20.4015 18.7791 20.4622 18.8591 20.511 18.9441L27.0081 25.4412C27.4415 25.8747 27.4415 26.5748 27.0081 27.0082C26.5747 27.4416 25.8745 27.4416 25.4411 27.0082L19.4778 21.0449C18.3946 21.8946 17.1277 22.4849 15.7724 22.7629C15.5548 22.8076 15.3361 22.844 15.1168 22.8722V25.1077H18.4507C19.062 25.1077 19.5621 25.6078 19.5621 26.2191C19.5621 26.8303 19.062 27.3304 18.4507 27.3304H14.0239C14.0177 27.3305 14.0116 27.3306 14.0054 27.3306C13.9992 27.3306 13.9931 27.3305 13.9869 27.3304H9.56C8.94876 27.3304 8.44866 26.8414 8.44866 26.2191C8.44866 25.6078 8.94876 25.1077 9.56 25.1077H12.8941V22.8783C12.1092 22.7816 11.3355 22.5798 10.5936 22.274C8.9599 21.596 7.55961 20.4514 6.58162 18.9733C5.61476 17.4952 5.10354 15.7615 5.11465 13.9945V11.7718C5.11465 11.1605 5.61476 10.6604 6.226 10.6604C6.83723 10.6604 7.33734 11.1605 7.33734 11.7718V14.0056C7.32622 15.3392 7.71519 16.6394 8.44868 17.7397C9.18217 18.8399 10.2379 19.7068 11.4604 20.218C12.1705 20.5122 12.9173 20.6776 13.6714 20.7141C13.7769 20.6806 13.8891 20.6625 14.0054 20.6625C14.1204 20.6625 14.2314 20.6802 14.3359 20.713C14.6714 20.6956 15.0067 20.6529 15.339 20.5847C16.2653 20.3947 17.1352 20.0129 17.8964 19.4635L16.2608 17.8279C15.8341 18.0783 15.3658 18.256 14.8723 18.3509C14.5833 18.4176 14.2944 18.4398 14.0054 18.4398C13.4275 18.4398 12.8496 18.3287 12.3051 18.0953C11.4938 17.7619 10.8047 17.1951 10.3158 16.4616C9.81565 15.7393 9.56004 14.8835 9.56004 14.0056V11.1272L0.991572 2.55869C0.558148 2.12526 0.558148 1.42512 0.991572 0.991694ZM14.5741 16.1412L11.7943 13.3614L11.7827 13.3499V13.9945C11.7827 14.439 11.9161 14.8613 12.1606 15.2281C12.4051 15.5948 12.7496 15.8726 13.1608 16.0505C13.5609 16.2172 14.0054 16.2616 14.4388 16.1727L14.4389 16.1727C14.4809 16.1622 14.5228 16.1517 14.5741 16.1412ZM17.3394 12.1496C16.7282 12.1496 16.2281 11.6495 16.2281 11.0383V5.10372C16.2281 4.54805 16.0281 4.02572 15.6502 3.61453C15.2835 3.20333 14.7722 2.94772 14.2277 2.89215C13.6831 2.83659 13.1275 2.98106 12.6829 3.31446C12.2384 3.63675 11.9383 4.12574 11.8272 4.65919C11.7049 5.25931 11.1159 5.64828 10.5158 5.52604C9.91567 5.40379 9.5267 4.82589 9.64895 4.22576C9.87122 3.14776 10.4825 2.19201 11.3715 1.53632C12.2606 0.880623 13.3608 0.580561 14.4611 0.691695C15.5613 0.802829 16.5726 1.31405 17.3172 2.13644C18.0396 2.94772 18.4508 4.0035 18.4508 5.11484V11.0494C18.4508 11.6606 17.9507 12.1496 17.3394 12.1496ZM22.8961 11.7718C22.8961 11.1605 22.396 10.6604 21.7848 10.6604C21.1736 10.6604 20.6734 11.1605 20.6734 11.7718V13.9945C20.6734 14.3945 20.6401 14.7835 20.5623 15.1725C20.4512 15.7726 20.8624 16.3505 21.4625 16.4616C22.0626 16.5728 22.6405 16.1616 22.7517 15.5614C22.8517 15.0391 22.8961 14.5168 22.8961 13.9945V11.7718Z" fill="#F5F9FF" fill-opacity="0.95"/>
</svg>
