<svg width="19" height="28" viewBox="0 0 19 28" fill="none" xmlns="http://www.w3.org/2000/svg">
<path fill-rule="evenodd" clip-rule="evenodd" d="M6.41259 1.96837C7.24608 1.13488 8.37654 0.666626 9.55528 0.666626C10.734 0.666626 11.8645 1.13488 12.698 1.96837C13.5315 2.80187 13.9997 3.93233 13.9997 5.11107V14C13.9997 15.1787 13.5315 16.3092 12.698 17.1427C11.8645 17.9762 10.734 18.4444 9.55528 18.4444C8.37654 18.4444 7.24608 17.9762 6.41259 17.1427C5.57909 16.3092 5.11084 15.1787 5.11084 14V5.11107C5.11084 3.93233 5.57909 2.80187 6.41259 1.96837ZM9.55528 2.88885C8.96591 2.88885 8.40068 3.12297 7.98394 3.53972C7.56719 3.95647 7.33306 4.5217 7.33306 5.11107V14C7.33306 14.5893 7.56719 15.1546 7.98394 15.5713C8.40068 15.9881 8.96591 16.2222 9.55528 16.2222C10.1447 16.2222 10.7099 15.9881 11.1266 15.5713C11.5434 15.1546 11.7775 14.5893 11.7775 14V5.11107C11.7775 4.5217 11.5434 3.95647 11.1266 3.53972C10.7099 3.12297 10.1447 2.88885 9.55528 2.88885Z" fill="#F5F9FF" fill-opacity="0.95"/>
<path fill-rule="evenodd" clip-rule="evenodd" d="M1.77761 10.6666C2.39126 10.6666 2.88873 11.1641 2.88873 11.7777V14C2.88873 15.7681 3.5911 17.4638 4.84135 18.714C6.09159 19.9642 7.78728 20.6666 9.55539 20.6666C11.3235 20.6666 13.0192 19.9642 14.2694 18.714C15.5197 17.4638 16.2221 15.7681 16.2221 14V11.7777C16.2221 11.1641 16.7195 10.6666 17.3332 10.6666C17.9468 10.6666 18.4443 11.1641 18.4443 11.7777V14C18.4443 16.3574 17.5078 18.6184 15.8408 20.2854C14.1738 21.9523 11.9129 22.8889 9.55539 22.8889C7.19791 22.8889 4.93699 21.9523 3.27 20.2854C1.60301 18.6184 0.666504 16.3574 0.666504 14V11.7777C0.666504 11.1641 1.16397 10.6666 1.77761 10.6666Z" fill="#F5F9FF" fill-opacity="0.95"/>
<path fill-rule="evenodd" clip-rule="evenodd" d="M9.55545 20.6666C10.1691 20.6666 10.6666 21.1641 10.6666 21.7777V26.2222C10.6666 26.8358 10.1691 27.3333 9.55545 27.3333C8.9418 27.3333 8.44434 26.8358 8.44434 26.2222V21.7777C8.44434 21.1641 8.9418 20.6666 9.55545 20.6666Z" fill="#F5F9FF" fill-opacity="0.95"/>
<path fill-rule="evenodd" clip-rule="evenodd" d="M4 26.2221C4 25.6084 4.49746 25.111 5.11111 25.111H14C14.6136 25.111 15.1111 25.6084 15.1111 26.2221C15.1111 26.8357 14.6136 27.3332 14 27.3332H5.11111C4.49746 27.3332 4 26.8357 4 26.2221Z" fill="#F5F9FF" fill-opacity="0.95"/>
</svg>
