<svg width="20" height="20" viewBox="0 0 20 20" fill="none" xmlns="http://www.w3.org/2000/svg">
<path d="M10.0002 14.3936C9.62362 14.3936 9.31836 14.6988 9.31836 15.0754C9.31836 15.4519 9.62362 15.7572 10.0002 15.7572H10.007C10.3836 15.7572 10.6888 15.4519 10.6888 15.0754C10.6888 14.6988 10.3836 14.3936 10.007 14.3936H10.0002Z" fill="#36B37E"/>
<path d="M8.09073 13.176C8.60054 12.6763 9.28595 12.3964 9.99982 12.3964C10.7137 12.3964 11.3991 12.6763 11.9089 13.176C12.1778 13.4396 12.6095 13.4352 12.8731 13.1663C13.1367 12.8974 13.1324 12.4657 12.8635 12.2021C12.0987 11.4526 11.0706 11.0327 9.99982 11.0327C8.92901 11.0327 7.90089 11.4526 7.13619 12.2021C6.86727 12.4657 6.86295 12.8974 7.12654 13.1663C7.39013 13.4352 7.82181 13.4396 8.09073 13.176Z" fill="#36B37E"/>
<path d="M5.7045 10.7896C6.85156 9.66529 8.39374 9.03551 9.99995 9.03551C11.6062 9.03551 13.1483 9.66529 14.2954 10.7896C14.5643 11.0532 14.996 11.0489 15.2596 10.78C15.5232 10.5111 15.5189 10.0794 15.2499 9.8158C13.848 8.4416 11.9631 7.67188 9.99995 7.67188C8.03681 7.67188 6.15192 8.4416 4.74996 9.8158C4.48104 10.0794 4.47672 10.5111 4.74031 10.78C5.0039 11.0489 5.43558 11.0532 5.7045 10.7896Z" fill="#36B37E"/>
<path d="M10 5.53026C7.65204 5.53026 5.38644 6.39564 3.63637 7.96095C3.3557 8.21199 2.92467 8.18797 2.67363 7.9073C2.42259 7.62663 2.44661 7.1956 2.72728 6.94456C4.72736 5.15563 7.31661 4.16663 10 4.16663C12.6834 4.16663 15.2726 5.15563 17.2727 6.94456C17.5534 7.1956 17.5774 7.62663 17.3264 7.9073C17.0753 8.18797 16.6443 8.21199 16.3636 7.96095C14.6136 6.39564 12.348 5.53026 10 5.53026Z" fill="#36B37E"/>
</svg>
