<svg width="26" height="17" viewBox="0 0 26 17" fill="none" xmlns="http://www.w3.org/2000/svg">
<path fill-rule="evenodd" clip-rule="evenodd" d="M17.9444 6.39341V3.16667C17.9444 1.41776 16.5267 0 14.7778 0H3.16667C1.41777 0 0 1.41776 0 3.16667V13.7222C0 15.4711 1.41777 16.8889 3.16667 16.8889H14.7778C16.5267 16.8889 17.9444 15.4711 17.9444 13.7222V10.4957L23.6642 14.5813C23.986 14.8111 24.4092 14.8418 24.7608 14.6609C25.1124 14.48 25.3333 14.1177 25.3333 13.7223V3.16677C25.3333 2.77138 25.1124 2.40913 24.7608 2.22821C24.4092 2.04728 23.986 2.07801 23.6642 2.30783L17.9444 6.39341ZM2.11111 3.16667C2.11111 2.5837 2.5837 2.11111 3.16667 2.11111H14.7778C15.3607 2.11111 15.8333 2.5837 15.8333 3.16667V13.7222C15.8333 14.3052 15.3607 14.7778 14.7778 14.7778H3.16667C2.5837 14.7778 2.11111 14.3052 2.11111 13.7222V3.16667ZM23.2222 11.6712L18.7049 8.44455L23.2222 5.21792V11.6712Z" fill="#F5F9FF" fill-opacity="0.95"/>
</svg>
