<svg width="26" height="26" viewBox="0 0 26 26" fill="none" xmlns="http://www.w3.org/2000/svg">
<path fill-rule="evenodd" clip-rule="evenodd" d="M1.80195 0.309165C1.38973 -0.103055 0.721385 -0.103055 0.309165 0.309165C-0.103055 0.721385 -0.103055 1.38973 0.309165 1.80195L2.75606 4.24884C2.06772 4.33884 1.42374 4.65337 0.927495 5.14961C0.33363 5.74348 1.49012e-08 6.54893 1.49012e-08 7.38879V17.9443C1.49012e-08 18.7842 0.33363 19.5896 0.927495 20.1835C1.52136 20.7774 2.32681 21.111 3.16667 21.111H14.7778C15.6176 21.111 16.4231 20.7774 17.0169 20.1835C17.3065 19.8939 17.5342 19.554 17.6916 19.1843L23.5314 25.0242C23.9436 25.4364 24.6119 25.4364 25.0242 25.0242C25.4364 24.6119 25.4364 23.9436 25.0242 23.5314L17.6441 16.1513C17.6412 16.1483 17.6382 16.1454 17.6353 16.1424L6.02417 4.53128C6.02125 4.52837 6.01832 4.52547 6.01537 4.52259L1.80195 0.309165ZM4.84045 6.33323L15.8333 17.3261V17.9443C15.8333 18.2243 15.7221 18.4928 15.5242 18.6907C15.3262 18.8887 15.0577 18.9999 14.7778 18.9999H3.16667C2.88672 18.9999 2.61823 18.8887 2.42028 18.6907C2.22232 18.4928 2.11111 18.2243 2.11111 17.9443V7.38879C2.11111 7.10884 2.22232 6.84035 2.42028 6.6424C2.61823 6.44444 2.88672 6.33323 3.16667 6.33323H4.84045ZM11.2522 6.33323H14.7778C15.0577 6.33323 15.3262 6.44444 15.5242 6.6424C15.7221 6.84035 15.8333 7.10884 15.8333 7.38879V10.9143C15.8333 11.1943 15.9445 11.4628 16.1425 11.6607L17.1981 12.7163C17.5646 13.0828 18.1431 13.129 18.5631 12.8252L23.2222 9.45505V17.9443C23.2222 18.5273 23.6948 18.9999 24.2778 18.9999C24.8607 18.9999 25.3333 18.5273 25.3333 17.9443V7.38879C25.3333 6.99226 25.1111 6.62918 24.758 6.44878C24.4049 6.26839 23.9804 6.30112 23.6591 6.53352L18.0547 10.5874L17.9444 10.4771V7.38879C17.9444 6.54893 17.6108 5.74348 17.0169 5.14961C16.4231 4.55575 15.6176 4.22212 14.7778 4.22212H11.2522C10.6693 4.22212 10.1967 4.69471 10.1967 5.27767C10.1967 5.86064 10.6693 6.33323 11.2522 6.33323Z" fill="black"/>
</svg>
